<svg width="2567" height="751" viewBox="0 0 2567 751" fill="none" xmlns="http://www.w3.org/2000/svg">
<path d="M52.0952 157.818H138.92L289.881 526.42H295.438L446.398 157.818H533.223V632H465.152V288.866H460.753L320.906 631.305H264.412L124.565 288.635H120.166V632H52.0952V157.818Z" fill="black"/>
<g clip-path="url(#clip0_202_18)">
<path d="M655.85 114.946L653.426 114.855C626.942 113.861 605.378 93.3374 604.334 68.1294L604.238 65.8203C604.191 64.6775 603.203 63.7734 602 63.7734C600.797 63.7734 599.809 64.6775 599.762 65.8203L599.666 68.1294C598.622 93.3374 577.06 113.861 550.574 114.855L548.15 114.946C546.95 114.991 546 115.931 546 117.076C546 118.221 546.95 119.162 548.153 119.206L550.576 119.296C577.06 120.292 598.622 140.815 599.666 166.023L599.762 168.332C599.809 169.475 600.797 170.379 602 170.379C603.203 170.379 604.191 169.475 604.238 168.332L604.334 166.023C605.378 140.815 626.94 120.292 653.424 119.296L655.847 119.206C657.05 119.162 658 118.221 658 117.076C658 115.931 657.05 114.991 655.85 114.946Z" fill="black"/>
</g>
<path d="M706.463 643.638C690.321 643.638 675.728 640.653 662.682 634.683C649.636 628.603 639.299 619.813 631.67 608.315C624.152 596.817 620.393 582.721 620.393 566.026C620.393 551.654 623.157 539.824 628.685 530.537C634.213 521.25 641.676 513.898 651.073 508.48C660.471 503.063 670.974 498.972 682.582 496.208C694.191 493.444 706.021 491.344 718.072 489.907C733.329 488.138 745.711 486.7 755.219 485.595C764.728 484.379 771.637 482.444 775.949 479.79C780.261 477.137 782.417 472.825 782.417 466.855V465.694C782.417 451.211 778.326 439.989 770.145 432.029C762.074 424.069 750.023 420.089 733.992 420.089C717.298 420.089 704.141 423.792 694.523 431.2C685.015 438.497 678.436 446.623 674.788 455.578L628.188 444.964C633.715 429.486 641.786 416.993 652.4 407.485C663.124 397.866 675.451 390.901 689.382 386.589C703.312 382.167 717.961 379.956 733.329 379.956C743.5 379.956 754.28 381.172 765.667 383.604C777.165 385.926 787.89 390.238 797.84 396.54C807.901 402.842 816.137 411.852 822.55 423.571C828.962 435.18 832.168 450.271 832.168 468.845V638H783.744V603.174H781.754C778.547 609.586 773.738 615.888 767.326 622.08C760.913 628.271 752.677 633.412 742.616 637.502C732.555 641.593 720.504 643.638 706.463 643.638ZM717.243 603.837C730.952 603.837 742.671 601.129 752.4 595.711C762.24 590.294 769.703 583.218 774.788 574.484C779.985 565.639 782.583 556.187 782.583 546.126V513.29C780.814 515.059 777.386 516.717 772.301 518.265C767.326 519.702 761.632 520.974 755.219 522.079C748.807 523.074 742.56 524.014 736.48 524.898C730.399 525.672 725.313 526.336 721.223 526.888C711.604 528.105 702.815 530.15 694.854 533.025C687.005 535.899 680.703 540.045 675.949 545.462C671.305 550.769 668.984 557.845 668.984 566.69C668.984 578.962 673.517 588.249 682.582 594.55C691.648 600.742 703.202 603.837 717.243 603.837ZM1005.01 738.83C984.781 738.83 967.368 736.176 952.774 730.869C938.291 725.563 926.461 718.542 917.285 709.808C908.108 701.074 901.254 691.51 896.721 681.118L939.341 663.539C942.326 668.404 946.306 673.545 951.282 678.962C956.367 684.49 963.222 689.189 971.845 693.058C980.58 696.928 991.801 698.863 1005.51 698.863C1024.31 698.863 1039.84 694.274 1052.11 685.098C1064.38 676.032 1070.52 661.549 1070.52 641.648V591.565H1067.37C1064.38 596.983 1060.07 603.008 1054.43 609.642C1048.9 616.275 1041.28 622.024 1031.55 626.889C1021.82 631.753 1009.16 634.186 993.57 634.186C973.449 634.186 955.317 629.487 939.175 620.089C923.144 610.581 910.43 596.596 901.033 578.132C891.746 559.559 887.102 536.728 887.102 509.641C887.102 482.554 891.69 459.337 900.867 439.989C910.154 420.642 922.868 405.827 939.009 395.545C955.151 385.152 973.449 379.956 993.902 379.956C1009.71 379.956 1022.48 382.609 1032.21 387.916C1041.94 393.112 1049.51 399.193 1054.93 406.158C1060.46 413.124 1064.71 419.26 1067.7 424.566H1071.35V383.273H1119.94V643.638C1119.94 665.529 1114.85 683.495 1104.68 697.536C1094.51 711.577 1080.75 721.969 1063.39 728.713C1046.14 735.458 1026.68 738.83 1005.01 738.83ZM1004.52 593.058C1018.78 593.058 1030.83 589.741 1040.67 583.108C1050.62 576.364 1058.14 566.745 1063.22 554.252C1068.42 541.648 1071.02 526.557 1071.02 508.978C1071.02 491.841 1068.47 476.75 1063.39 463.704C1058.3 450.658 1050.84 440.487 1041 433.19C1031.16 425.783 1019 422.079 1004.52 422.079C989.59 422.079 977.152 425.948 967.202 433.688C957.252 441.316 949.734 451.709 944.648 464.865C939.673 478.022 937.185 492.726 937.185 508.978C937.185 525.672 939.728 540.321 944.814 552.925C949.9 565.529 957.418 575.368 967.368 582.444C977.429 589.52 989.811 593.058 1004.52 593.058ZM1186.44 638V383.273H1236.03V638H1186.44ZM1211.48 343.969C1202.86 343.969 1195.45 341.095 1189.26 335.346C1183.18 329.486 1180.14 322.521 1180.14 314.45C1180.14 306.269 1183.18 299.303 1189.26 293.554C1195.45 287.695 1202.86 284.765 1211.48 284.765C1220.11 284.765 1227.46 287.695 1233.54 293.554C1239.73 299.303 1242.82 306.269 1242.82 314.45C1242.82 322.521 1239.73 329.486 1233.54 335.346C1227.46 341.095 1220.11 343.969 1211.48 343.969ZM1410.03 643.141C1385.38 643.141 1364.15 637.558 1346.35 626.391C1328.66 615.114 1315.06 599.581 1305.55 579.791C1296.05 560.001 1291.29 537.336 1291.29 511.797C1291.29 485.926 1296.16 463.096 1305.88 443.306C1315.61 423.406 1329.32 407.872 1347.01 396.706C1364.7 385.539 1385.54 379.956 1409.53 379.956C1428.88 379.956 1446.13 383.549 1461.28 390.735C1476.42 397.811 1488.64 407.761 1497.93 420.586C1507.32 433.411 1512.91 448.392 1514.67 465.528H1466.42C1463.76 453.588 1457.68 443.306 1448.17 434.683C1438.78 426.059 1426.17 421.747 1410.36 421.747C1396.54 421.747 1384.44 425.396 1374.04 432.692C1363.76 439.879 1355.75 450.161 1350 463.538C1344.25 476.805 1341.37 492.505 1341.37 510.636C1341.37 529.21 1344.19 545.241 1349.83 558.729C1355.47 572.218 1363.43 582.665 1373.71 590.073C1384.11 597.48 1396.32 601.184 1410.36 601.184C1419.76 601.184 1428.27 599.47 1435.9 596.043C1443.64 592.505 1450.11 587.475 1455.3 580.952C1460.61 574.429 1464.32 566.579 1466.42 557.403H1514.67C1512.91 573.876 1507.54 588.58 1498.59 601.516C1489.63 614.451 1477.64 624.622 1462.6 632.03C1447.68 639.437 1430.15 643.141 1410.03 643.141ZM1641.83 643.638C1625.69 643.638 1611.1 640.653 1598.05 634.683C1585 628.603 1574.67 619.813 1567.04 608.315C1559.52 596.817 1555.76 582.721 1555.76 566.026C1555.76 551.654 1558.53 539.824 1564.05 530.537C1569.58 521.25 1577.04 513.898 1586.44 508.48C1595.84 503.063 1606.34 498.972 1617.95 496.208C1629.56 493.444 1641.39 491.344 1653.44 489.907C1668.7 488.138 1681.08 486.7 1690.59 485.595C1700.1 484.379 1707.01 482.444 1711.32 479.79C1715.63 477.137 1717.79 472.825 1717.79 466.855V465.694C1717.79 451.211 1713.69 439.989 1705.51 432.029C1697.44 424.069 1685.39 420.089 1669.36 420.089C1652.67 420.089 1639.51 423.792 1629.89 431.2C1620.38 438.497 1613.8 446.623 1610.16 455.578L1563.56 444.964C1569.08 429.486 1577.15 416.993 1587.77 407.485C1598.49 397.866 1610.82 390.901 1624.75 386.589C1638.68 382.167 1653.33 379.956 1668.7 379.956C1678.87 379.956 1689.65 381.172 1701.04 383.604C1712.53 385.926 1723.26 390.238 1733.21 396.54C1743.27 402.842 1751.51 411.852 1757.92 423.571C1764.33 435.18 1767.54 450.271 1767.54 468.845V638H1719.11V603.174H1717.12C1713.92 609.586 1709.11 615.888 1702.69 622.08C1696.28 628.271 1688.04 633.412 1677.98 637.502C1667.92 641.593 1655.87 643.638 1641.83 643.638ZM1652.61 603.837C1666.32 603.837 1678.04 601.129 1687.77 595.711C1697.61 590.294 1705.07 583.218 1710.16 574.484C1715.35 565.639 1717.95 556.187 1717.95 546.126V513.29C1716.18 515.059 1712.75 516.717 1707.67 518.265C1702.69 519.702 1697 520.974 1690.59 522.079C1684.18 523.074 1677.93 524.014 1671.85 524.898C1665.77 525.672 1660.68 526.336 1656.59 526.888C1646.97 528.105 1638.18 530.15 1630.22 533.025C1622.37 535.899 1616.07 540.045 1611.32 545.462C1606.67 550.769 1604.35 557.845 1604.35 566.69C1604.35 578.962 1608.88 588.249 1617.95 594.55C1627.02 600.742 1638.57 603.837 1652.61 603.837ZM1883.17 298.364V638H1833.58V298.364H1883.17ZM2235.95 408.812H2184.2C2182.21 397.756 2178.51 388.027 2173.09 379.624C2167.68 371.222 2161.04 364.091 2153.19 358.231C2145.34 352.372 2136.55 347.949 2126.82 344.964C2117.21 341.979 2106.98 340.487 2096.14 340.487C2076.58 340.487 2059.05 345.406 2043.57 355.246C2028.21 365.086 2016.04 379.514 2007.09 398.53C1998.24 417.546 1993.82 440.763 1993.82 468.182C1993.82 495.821 1998.24 519.149 2007.09 538.165C2016.04 557.182 2028.26 571.554 2043.74 581.283C2059.22 591.013 2076.63 595.877 2095.98 595.877C2106.7 595.877 2116.87 594.44 2126.49 591.565C2136.22 588.58 2145.01 584.213 2152.86 578.464C2160.71 572.715 2167.34 565.695 2172.76 557.403C2178.29 549 2182.1 539.382 2184.2 528.547L2235.95 528.713C2233.18 545.407 2227.82 560.775 2219.86 574.816C2212.01 588.746 2201.89 600.797 2189.51 610.968C2177.24 621.029 2163.2 628.824 2147.39 634.352C2131.58 639.879 2114.33 642.643 2095.65 642.643C2066.24 642.643 2040.04 635.678 2017.04 621.748C1994.04 607.707 1975.91 587.641 1962.64 561.549C1949.49 535.457 1942.91 504.335 1942.91 468.182C1942.91 431.919 1949.54 400.796 1962.81 374.815C1976.08 348.723 1994.21 328.712 2017.21 314.782C2040.2 300.741 2066.35 293.72 2095.65 293.72C2113.67 293.72 2130.47 296.318 2146.06 301.515C2161.76 306.6 2175.86 314.118 2188.35 324.069C2200.84 333.908 2211.18 345.959 2219.36 360.221C2227.54 374.373 2233.07 390.57 2235.95 408.812ZM2328.82 298.364L2410.08 431.2H2412.73L2493.99 298.364H2553.36L2447.56 468.182L2554.02 638H2494.32L2412.73 506.988H2410.08L2328.48 638H2268.78L2377.07 468.182L2269.45 298.364H2328.82Z" fill="black"/>
<defs>
<clipPath id="clip0_202_18">
<rect width="112" height="106.606" fill="white" transform="translate(546 63.7734)"/>
</clipPath>
</defs>
</svg>
