<svg width="628" height="751" viewBox="0 0 628 751" fill="none" xmlns="http://www.w3.org/2000/svg">
<path d="M52.0952 157.818H138.92L289.881 526.42H295.438L446.398 157.818H533.223V632H465.152V288.866H460.753L320.906 631.305H264.412L124.565 288.635H120.166V632H52.0952V157.818Z" fill="white"/>
<g clip-path="url(#clip0_306_64)">
<path d="M625.85 114.946L623.426 114.855C596.942 113.861 575.378 93.3374 574.334 68.1294L574.238 65.8203C574.191 64.6775 573.203 63.7734 572 63.7734C570.797 63.7734 569.809 64.6775 569.762 65.8203L569.666 68.1294C568.622 93.3374 547.06 113.861 520.574 114.855L518.15 114.946C516.95 114.991 516 115.931 516 117.076C516 118.221 516.95 119.162 518.153 119.206L520.576 119.296C547.06 120.292 568.622 140.815 569.666 166.023L569.762 168.332C569.809 169.475 570.797 170.379 572 170.379C573.203 170.379 574.191 169.475 574.238 168.332L574.334 166.023C575.378 140.815 596.94 120.292 623.424 119.296L625.847 119.206C627.05 119.162 628 118.221 628 117.076C628 115.931 627.05 114.991 625.85 114.946Z" fill="white"/>
</g>
<defs>
<clipPath id="clip0_306_64">
<rect width="112" height="106.606" fill="white" transform="translate(516 63.7734)"/>
</clipPath>
</defs>
</svg>
